<svg xmlns="http://www.w3.org/2000/svg" viewBox="0 0 32 32"><symbol xmlns="http://www.w3.org/2000/svg" id="jqwu9N7zT7LKWHgDmMK74" viewBox="0 0 32 32" fill="none"><path fill-rule="evenodd" clip-rule="evenodd" d="M25.33 22.49l.433-.73a11.272 11.272 0 001.57-5.76C27.333 9.74 22.26 4.667 16 4.667 9.74 4.667 4.667 9.74 4.667 16c0 6.26 5.074 11.333 11.333 11.333 2.099 0 4.058-.568 5.74-1.558l.729-.43 3.94 1.08-1.078-3.935zm3.689 5.89a.533.533 0 01-.655.655l-5.609-1.537A13.271 13.271 0 0116 29.333c-7.364 0-13.333-5.97-13.333-13.333C2.667 8.636 8.637 2.667 16 2.667c7.364 0 13.333 5.97 13.333 13.333 0 2.475-.674 4.793-1.85 6.78l1.536 5.6z" fill="#222"></path></symbol><use href="#jqwu9N7zT7LKWHgDmMK74"></use></svg>