<svg xmlns="http://www.w3.org/2000/svg" viewBox="0 0 32 32"><symbol xmlns="http://www.w3.org/2000/svg" id="_srId2Cznw3R-4QKJCn1B" viewBox="0 0 32 32" fill="none"><path fill-rule="evenodd" clip-rule="evenodd" d="M24.03 4.455l-.074-.029-.076-.022c-2.689-.805-4.882-.208-6.492.912-.538.375-.999.798-1.389 1.227a8.275 8.275 0 00-1.389-1.227c-1.609-1.12-3.802-1.717-6.49-.912l-.076.022-.074.029c-1.388.538-3.223 1.784-4.34 3.87-1.17 2.186-1.42 5.042.026 8.437 1.425 3.346 4.349 6.3 6.72 8.326a44.928 44.928 0 004.17 3.153c.12.08.216.141.283.184l.888.555a.533.533 0 00.566 0l.888-.555.282-.184a44.914 44.914 0 004.17-3.153c2.371-2.027 5.294-4.98 6.72-8.326 1.445-3.395 1.195-6.251.026-8.436-1.117-2.087-2.951-3.333-4.34-3.871zm2.472 11.523C24.028 21.787 16 26.799 16 26.799S7.97 21.787 5.496 15.978c-2.475-5.81 1.135-8.86 3.197-9.658 3.024-.905 4.975.502 6.094 1.879l.04.05a8.15 8.15 0 01.867 1.338c.114.221.495.222.61 0a8.36 8.36 0 01.866-1.337l.041-.05c1.119-1.377 3.07-2.785 6.096-1.88 2.062.799 5.67 3.849 3.195 9.658z" fill="#222"></path></symbol><use href="#_srId2Cznw3R-4QKJCn1B"></use></svg>